<svg xmlns="http://www.w3.org/2000/svg" width="30.822" height="22" viewBox="0 0 30.822 22">
  <g id="add-article" transform="translate(12.222 -1.03)">
    <rect id="Rectangle_313" data-name="Rectangle 313" width="1.5" height="22" rx="0.75" transform="translate(-12.222 1.03)" fill="#fff"/>
    <path id="Rectangle_1" data-name="Rectangle 1" d="M.278,20.363c-.389-.386.065-3.76,1.018-4.672l.48-.458L5.639,19.18l-.479.458c-.648.62-2.463.941-3.7.941A2.088,2.088,0,0,1,.278,20.363Zm3.47-7.021,9.442-9.391,4.152,3.87L7.636,17.391ZM14.84,2.366l1.232-1.205a1.342,1.342,0,0,1,1.885.011L20.12,3.335A1.311,1.311,0,0,1,20.109,5.2L19.037,6.352Z" transform="translate(-1.905 1.444)" fill="#7b2a2a"/>
  </g>
</svg>
