<svg xmlns="http://www.w3.org/2000/svg" width="32.822" height="22" viewBox="0 0 32.822 22">
  <g id="add-article" transform="translate(12.222 -1.03)">

    <path id="Rectangle_1" data-name="Rectangle 1" d="M.292,22.349c-.428-.425.071-4.142,1.121-5.146l.528-.5L6.2,21.046l-.527.5c-.714.682-2.713,1.036-4.076,1.036A2.3,2.3,0,0,1,.292,22.349Zm3.821-7.733,10.4-10.343,4.573,4.262L8.4,19.075ZM16.331,2.527,17.688,1.2a1.478,1.478,0,0,1,2.076.012l2.383,2.382a1.444,1.444,0,0,1-.013,2.056L20.953,6.917Z" transform="translate(-1.97 0.444)" fill="#fff"/>
  </g>
</svg>
