<svg xmlns="http://www.w3.org/2000/svg" width="107.298" height="58.936" viewBox="0 0 107.298 58.936">
  <g id="logo-sign" transform="translate(0)">
    <path id="_2small_rect" data-name="2small rect" d="M105.089,2.442V0H107.3V2.442ZM0,2.442V0H2.209V2.442Z" transform="translate(0 54.302)" fill="#d94436"/>
    <text id="КНИГА_РУССКОГО_АВАНГАРДА" data-name="КНИГА РУССКОГО АВАНГАРДА" transform="translate(6.32 56.936)" fill="#202020" font-size="6.5" font-family="AndaleMono, Andale Mono"><tspan x="0" y="0">КНИГА РУССКОГО АВАНГАРДА</tspan></text>
    <path id="sign" d="M1.081,48.026V34.421H13.034V48.026ZM2.9,32.021,0,0H14.122L10.863,32.021Z" transform="translate(88.498)" fill="#d94436"/>
    <path id="for" d="M19.674,32.155V26.061H5.525v6.094H0V21.074H1.769A44.805,44.805,0,0,0,4.547,11.45,64.734,64.734,0,0,0,5.509,0H22.9V21.074h2.3V32.155ZM9.821,13.882a43.507,43.507,0,0,1-2.293,7.192h9.359V5.058H11.066A53.377,53.377,0,0,1,9.821,13.882ZM29.474,27.055q-.837-.07-1.072-.105V21.1h.219q.141.018.321.035c.12.012.258.018.415.018a5.022,5.022,0,0,0,1.3-.123,1.8,1.8,0,0,0,.752-.439,6.792,6.792,0,0,0,1.636-3.732A79.216,79.216,0,0,0,33.708,8.9q.094-1.826.148-3.978T33.959,0H52.239V26.95h-6.01V5.058H39.562q-.079,1.722-.125,2.7t-.141,2.6c-.136,2.365-.342,5.153-.619,6.763a28.2,28.2,0,0,1-.931,3.978,13.665,13.665,0,0,1-1.127,2.581,9.4,9.4,0,0,1-1.19,1.634,5.569,5.569,0,0,1-1.909,1.317,6.08,6.08,0,0,1-2.426.492Q30.312,27.125,29.474,27.055Zm40.456-.906V16.56H66.664l-2.977,9.589H56.566l4.068-10.835a7.933,7.933,0,0,1-3.31-2.88,8.9,8.9,0,0,1-1.2-4.882,7.367,7.367,0,0,1,.79-3.495,7.454,7.454,0,0,1,2.011-2.441A7.057,7.057,0,0,1,61.518.395,14.014,14.014,0,0,1,65.016,0H75.909V26.149ZM64.86,4.908a2.948,2.948,0,0,0-2.238,1.826,4.236,4.236,0,0,0-.282,1.572,4.136,4.136,0,0,0,.3,1.607,3.066,3.066,0,0,0,.83,1.168,2.675,2.675,0,0,0,1.4.65,14.691,14.691,0,0,0,2.121.123H69.93V4.812H66.957A17.256,17.256,0,0,0,64.86,4.908Z" transform="translate(6.629 0.769)" fill="#202020"/>
    <text id="ГОЛОСА" transform="translate(5.392 46.353)" fill="#202020" font-size="17" font-family="Verdana-Bold, Verdana" font-weight="700"><tspan x="0" y="0">ГОЛОСА</tspan></text>
  </g>
</svg>
